<svg width="115" height="19" viewBox="0 0 115 19" fill="none" xmlns="http://www.w3.org/2000/svg"><g clip-path="url(#a)" fill="currentColor"><path d="M6.634 0c4.46 0 8.584 2.588 10.87 2.588 1.059 0 1.17-1.101 1.95-1.101.502 0 .781.33.781.66 0 .882-1.393 2.259-4.18 2.259-.948 0-1.84-.11-2.788-.22v11.62c0 1.377.39 1.542 1.951 1.707v.991H7.024v-.991c1.56-.11 1.95-.33 1.95-1.707V3.359c-1.616-.33-3.01-.66-4.18-.66-1.784 0-3.122.88-3.122 2.533 0 .826.39 1.542 1.115 1.542.892 0 1.06-1.432 2.62-1.432 1.115 0 1.951.881 1.951 1.928 0 1.431-1.17 2.423-3.01 2.423C2.063 9.748 0 8.206 0 5.232 0 2.038 3.122 0 6.634 0z"/><path d="M23.803 9.032l3.735-2.038h1.393v9.363c0 .715.223.936 1.394 1.046v.991c-1.728 0-3.4.11-5.073.386v-1.157c-1.003.606-2.397 1.157-3.679 1.157-1.784 0-3.846-.606-3.846-3.745v-4.351c0-.496-.168-.716-.614-.716h-.724v-.936l3.735-2.038h1.393v8.15c0 1.157.67 1.598 1.561 1.598.78 0 1.505-.275 2.174-.716v-5.342c0-.496-.167-.716-.613-.716h-.725v-.936h-.111zm12.431 5.508l-1.561 1.927c-.39.495-.056.936.836.99v.992h-4.571v-.991c.836-.11 1.226-.33 1.728-.991l2.62-3.305-2.508-3.8c-.39-.55-.67-.936-1.561-.991V7.38h6.745v.99c-.836.056-1.115.442-.725.992l1.115 1.597 1.226-1.597c.39-.495.167-.88-.836-.991V7.38h4.571v.99c-.892.111-1.282.386-1.784.992l-2.34 2.974 2.786 4.13c.39.551.725.882 1.505.992v.991h-6.689v-.991c1.004-.055 1.17-.386.725-.991l-1.282-1.928zm11.204-2.259v.606c0 2.809.892 4.296 3.01 4.296 1.394 0 2.732-.937 3.568-2.644l1.338.771c-1.06 2.093-2.564 3.525-5.407 3.525-4.014 0-6.41-2.478-6.41-5.893 0-3.414 2.452-5.893 6.02-5.893 3.511 0 5.462 2.038 5.462 5.232h-7.58zm.056-1.542h3.958c0-1.432-.725-2.258-1.84-2.258-1.282 0-1.895.771-2.118 2.258zm17.336 8.096v-1.102c-.724.716-1.783 1.102-3.121 1.102-3.066 0-5.185-2.313-5.185-5.893 0-3.58 2.175-5.893 5.185-5.893 1.393 0 2.397.44 3.121 1.102V7.38c0-1.212.223-2.258.558-3.194-1.784-.937-3.624-1.983-5.853-1.983-1.171 0-1.673.496-1.84 1.212-.223.99-.78 1.597-1.728 1.597-.836 0-1.505-.551-1.505-1.487 0-1.542 1.784-2.864 4.57-2.864 2.732 0 5.018 1.156 6.913 2.148C66.837 1.487 68.12.77 69.513.77c1.84 0 3.066 1.101 3.066 2.423 0 1.432-1.282 2.478-2.955 2.478-.39 0-.78-.055-1.17-.165v10.74c0 .715.223.936 1.393 1.046v.991c-1.616.165-3.289.275-5.017.55zm0-2.699V9.748c-.446-.661-1.115-.991-1.95-.991-1.785 0-2.565 1.321-2.565 4.185s.78 4.186 2.564 4.186c.836-.055 1.505-.33 1.951-.992zm3.735-12.06c.39.11.78.165 1.17.165.614 0 1.171-.33 1.171-.937 0-.495-.39-.936-1.059-.936-.724 0-1.226.55-1.282 1.707z"/><path d="M77.317 7.05c3.902 0 6.355 2.478 6.355 5.892 0 3.415-2.453 5.893-6.355 5.893-3.902 0-6.355-2.478-6.355-5.893.056-3.414 2.509-5.893 6.355-5.893zm0 10.353c1.895 0 2.509-1.652 2.509-4.46 0-2.81-.614-4.462-2.509-4.462s-2.508 1.597-2.508 4.461c0 2.864.668 4.46 2.508 4.46zm12.598-6.939v-.606c.67-.055.78-.22.78-.606v-3.36c0-.66-.39-.935-.947-.935-.446 0-.892.165-1.282.44v3.855c0 .44.167.55.78.606v.606h-3.79v-.606c.613-.055.78-.22.78-.606V5.948c0-.275-.111-.44-.334-.44h-.446v-.551L87.63 3.8h.78v.66a4.006 4.006 0 0 1 2.118-.66c1.06 0 2.23.386 2.23 2.203v3.25c0 .44.167.55.78.605v.606h-3.623zM97.998 3.8c2.286 0 3.679 1.432 3.679 3.415 0 1.982-1.449 3.47-3.679 3.47-2.23 0-3.679-1.433-3.679-3.47 0-1.983 1.45-3.415 3.68-3.415zm0 6.058c1.115 0 1.45-.936 1.45-2.588 0-1.653-.335-2.589-1.45-2.589s-1.45.936-1.45 2.589c0 1.652.39 2.588 1.45 2.588zm5.128-2.864c0-3.524 2.174-5.727 5.686-5.727 3.345 0 5.631 2.037 5.631 4.846 0 3.47-3.122 6.223-7.247 8.591h5.128c.948 0 1.171-.11 1.561-1.652h1.171L114.275 19h-1.17c0-.22-.056-.55-.558-.55h-9.198v-2.26c3.568-2.698 6.857-5.892 6.857-10.023 0-1.927-.836-3.194-2.509-3.194-1.616 0-2.842 1.267-2.842 4.02h-1.729zm-4.905 5.893h-9.81v1.322h9.81v-1.322z"/></g><defs><clipPath id="a"><path d="M0 0h115v19H0V0z" fill="currentColor"/></clipPath></defs></svg>
