<svg width="14" height="14" viewBox="0 0 14 14" fill="none" xmlns="http://www.w3.org/2000/svg"><path fill-rule="evenodd" clip-rule="evenodd" d="M5.74 7.938c1.574 0 2.809-1.254 2.809-2.752 0-1.498-1.235-2.752-2.808-2.752-1.573 0-2.809 1.254-2.809 2.752 0 1.498 1.236 2.752 2.809 2.752zm0 2c2.656 0 4.809-2.127 4.809-4.752S8.396.434 5.74.434C3.085.434.932 2.56.932 5.186s2.153 4.752 4.809 4.752z" fill="currentColor"/><path fill-rule="evenodd" clip-rule="evenodd" d="M8.235 7.651a1 1 0 0 1 1.414-.008l4.007 3.96a1 1 0 1 1-1.406 1.423l-4.007-3.96a1 1 0 0 1-.008-1.415z" fill="currentColor"/></svg>
