<svg width="15" height="23" viewBox="0 0 15 23" fill="none" xmlns="http://www.w3.org/2000/svg"><path d="M10.96 16.745a1.222 1.222 0 0 1-1.717-.183l-1.151-1.426a1.222 1.222 0 0 1 .183-1.717L9.7 12.267a1.222 1.222 0 0 1 1.718.184l1.15 1.425a1.222 1.222 0 0 1-.182 1.718l-1.426 1.151z" fill="#000"/><path fill-rule="evenodd" clip-rule="evenodd" d="M1 20.274l-.426.617-.324-.224V8.5h1.5v11.35l.062.035c.271.148.679.349 1.207.552 1.056.405 2.59.813 4.481.813s3.425-.408 4.481-.813a10.077 10.077 0 0 0 1.269-.586V8.5h1.5v12.167l-.324.224-.426-.617.426.617-.002.001-.003.003-.01.006-.029.02a7.854 7.854 0 0 1-.476.282c-.323.175-.79.405-1.387.634-1.194.458-2.91.913-5.019.913s-3.825-.455-5.019-.913a11.565 11.565 0 0 1-1.387-.635 7.772 7.772 0 0 1-.476-.282l-.03-.02-.009-.005-.003-.003H.575s-.001-.001.425-.618z" fill="#000"/><path fill-rule="evenodd" clip-rule="evenodd" d="M.7 8.5l-.392.64V7.86L.7 8.5zm13.5 0l.457.594V7.906L14.2 8.5zm-11.588 0l.109-.035C3.835 8.11 5.509 7.75 7.7 7.75c2.19 0 3.73.36 4.705.707l.12.043a8.549 8.549 0 0 1-.12.043c-.974.346-2.514.707-4.705.707-2.191 0-3.865-.361-4.98-.715a12.53 12.53 0 0 1-.108-.035zm-.345-1.465C3.515 6.64 5.34 6.25 7.7 6.25s4.07.39 5.207.793c.569.202.992.407 1.28.567a5.061 5.061 0 0 1 .454.283l.01.007.003.003.002.001v.001L14.2 8.5l.457.595h-.001l-.002.002-.003.003-.01.007a1.776 1.776 0 0 1-.12.084c-.079.05-.19.12-.333.2-.29.16-.713.364-1.28.566-1.139.404-2.849.793-5.208.793s-4.185-.389-5.433-.785a11.886 11.886 0 0 1-1.43-.551 7.324 7.324 0 0 1-.483-.247l-.03-.018-.01-.006-.003-.002H.31L.309 9.14.7 8.5l-.391-.64.002-.001.003-.002.01-.006.03-.018.104-.057a7.11 7.11 0 0 1 .378-.19c.328-.153.807-.353 1.43-.55z" fill="#000"/><path d="M5.5 8H10v3H5.5V8zm1-3H11v3H6.5V5z" fill="#E5E5E5"/><path d="M7.263 17.042c-.537 1.58-1.933 2.534-3.118 2.13-1.185-.402-1.71-2.01-1.172-3.59.537-1.579 1.933-2.533 3.118-2.13 1.184.403 1.71 2.01 1.172 3.59z" fill="#000"/><path fill-rule="evenodd" clip-rule="evenodd" d="M7.76.941a.75.75 0 0 1 .95-.468l3.787 1.288a.75.75 0 1 1-.483 1.42L8.228 1.893A.75.75 0 0 1 7.76.941z" fill="#000"/><path fill-rule="evenodd" clip-rule="evenodd" d="M11.071 2.074L6.513 15.11l-1.416-.496L9.655 1.58l1.416.495z" fill="#000"/></svg>
