<svg width="22" height="22" viewBox="0 0 22 22" fill="none" xmlns="http://www.w3.org/2000/svg"><path fill-rule="evenodd" clip-rule="evenodd" d="M3.97 3.97a.75.75 0 0 0 0 1.06l1.5 1.5a.75.75 0 0 0 1.06-1.06l-1.5-1.5a.75.75 0 0 0-1.06 0zm14.56 0a.75.75 0 0 1 0 1.06l-1.5 1.5a.75.75 0 1 1-1.06-1.06l1.5-1.5a.75.75 0 0 1 1.06 0zm-7.47-2.72a.75.75 0 0 1 .75.75v2.121a.75.75 0 0 1-1.5 0V2a.75.75 0 0 1 .75-.75zm7.47 16.78a.75.75 0 0 0 0-1.06l-1.5-1.5a.75.75 0 1 0-1.06 1.06l1.5 1.5a.75.75 0 0 0 1.06 0zm-14.56 0a.75.75 0 0 1 0-1.06l1.5-1.5a.75.75 0 0 1 1.06 1.06l-1.5 1.5a.75.75 0 0 1-1.06 0zm7.47 2.72a.75.75 0 0 1-.75-.75v-2.121a.75.75 0 0 1 1.5 0V20a.75.75 0 0 1-.75.75zm9.431-9.69a.75.75 0 0 1-.75.75H18a.75.75 0 0 1 0-1.5h2.121a.75.75 0 0 1 .75.75zm-16 0a.75.75 0 0 1-.75.75H2a.75.75 0 0 1 0-1.5h2.121a.75.75 0 0 1 .75.75zM11 14.5a3.5 3.5 0 1 0 0-7 3.5 3.5 0 0 0 0 7zm0 1.5a5 5 0 1 0 0-10 5 5 0 0 0 0 10z" fill="currentColor"/></svg>
