<svg width="11" height="24" viewBox="0 0 11 24" fill="none" xmlns="http://www.w3.org/2000/svg"><path fill-rule="evenodd" clip-rule="evenodd" d="M6 19.25a.75.75 0 0 1 .75.75v1a.75.75 0 0 1-1.5 0v-1a.75.75 0 0 1 .75-.75zM2.25 23a.75.75 0 0 1 .75-.75h6a.75.75 0 0 1 0 1.5H3a.75.75 0 0 1-.75-.75zM.786.25h10.192l-.542 1.085-.002.004-.01.019-.037.078c-.032.069-.08.172-.138.304-.115.263-.27.636-.424 1.073-.314.89-.604 1.981-.604 2.932 0 .957.184 1.922.393 3.022l.025.127c.215 1.13.444 2.38.444 3.753 0 1.449-.478 2.867-1.065 3.923-.294.53-.63.995-.974 1.339-.172.172-.36.328-.562.446a1.473 1.473 0 0 1-.737.218H5.02c-.289 0-.543-.104-.738-.218a2.85 2.85 0 0 1-.561-.446c-.344-.344-.68-.81-.975-1.339-.586-1.056-1.065-2.474-1.065-3.923 0-1.373.23-2.622.445-3.753l.024-.127c.21-1.1.394-2.065.394-3.022 0-.95-.29-2.042-.604-2.932a15.715 15.715 0 0 0-.6-1.455l-.009-.019-.002-.003L.786.25zm2.358 1.5c.068.173.14.362.21.564.333.943.69 2.225.69 3.431 0 1.103-.209 2.197-.411 3.254l-.034.176c-.215 1.133-.418 2.257-.418 3.472 0 1.14.385 2.31.877 3.195.245.44.502.784.724 1.006a1.362 1.362 0 0 0 .282.226H6.7a1.362 1.362 0 0 0 .283-.225 4.68 4.68 0 0 0 .724-1.007c.492-.886.876-2.055.876-3.195 0-1.215-.202-2.339-.418-3.472-.01-.059-.022-.117-.033-.176-.202-1.057-.411-2.151-.411-3.254 0-1.206.356-2.488.69-3.43.07-.203.142-.392.21-.565H3.144zm3.539 15.331h.002zm-1.601 0H5.08z" fill="currentColor"/></svg>
