<svg width="19" height="17" viewBox="0 0 19 17" fill="none" xmlns="http://www.w3.org/2000/svg"><path fill-rule="evenodd" clip-rule="evenodd" d="M9.074 9.448a.75.75 0 0 0-1.06.044l.552.508-.552-.508-.002.002-.002.003-.007.007-.019.021a4.94 4.94 0 0 0-.255.326c-.156.218-.36.534-.562.94a7.785 7.785 0 0 0-.805 3.477V16a.75.75 0 0 0 1.5 0v-1.732c0-1.207.326-2.16.648-2.809.162-.324.322-.571.438-.733a3.466 3.466 0 0 1 .167-.215l.005-.005a.75.75 0 0 0-.046-1.058zM3.897 3.093a27.88 27.88 0 0 1-.998-.08l-1.207-.128.426 1.137.702-.263-.702.263v.002l.002.005.006.015a5.428 5.428 0 0 0 .096.237c.066.157.163.377.288.636.249.514.619 1.198 1.094 1.847.47.64 1.08 1.3 1.827 1.704.778.421 1.703.56 2.686.129a.75.75 0 0 0 .397-.415c.443-1.137.563-2.107.295-2.913-.278-.839-.919-1.33-1.611-1.619-.675-.281-1.467-.4-2.2-.472a38.744 38.744 0 0 0-1.056-.082l-.046-.003zm.135 1.513c.277.019.551.04.82.065.706.069 1.311.173 1.769.364.44.183.667.412.765.707.097.292.113.78-.154 1.578-.383.092-.736.02-1.087-.17-.467-.254-.92-.713-1.33-1.272-.31-.424-.575-.874-.783-1.272zm12.073.731c.346.094.668.18.97.25l1.182.274-.774.935-.578-.478.578.478-.002.002-.003.004-.01.012a6.447 6.447 0 0 1-.169.193c-.113.126-.276.303-.48.506-.403.405-.976.93-1.638 1.389-.653.452-1.446.875-2.283 1.013-.873.143-1.793-.028-2.58-.757a.75.75 0 0 1-.24-.522c-.047-1.22.157-2.176.673-2.85.538-.7 1.304-.956 2.052-1.003.73-.045 1.518.102 2.234.274.348.084.696.179 1.024.268l.044.012zm-.623 1.385a29.87 29.87 0 0 0-.796-.206c-.689-.166-1.295-.266-1.79-.235-.476.03-.765.171-.955.418-.187.244-.361.7-.37 1.541.332.213.69.26 1.083.195.524-.087 1.103-.372 1.673-.767a10.07 10.07 0 0 0 1.155-.946z" fill="currentColor"/></svg>
