<svg width="25" height="28" viewBox="0 0 25 28" fill="none" xmlns="http://www.w3.org/2000/svg"><path fill-rule="evenodd" clip-rule="evenodd" d="M18.253 17.912l-1.555-.985a.75.75 0 0 0-1.091.34l-1.319 3.096-.771-1.703a.75.75 0 0 0-.867-.418l-5.586 1.413 2.88-3.463a.75.75 0 0 0-.046-1.009l-1.423-1.43 3.586-1.364a.75.75 0 0 0 .351-1.126l-1.069-1.558a41.898 41.898 0 0 1 2.271-.207c.916-.057 1.855-.076 2.645-.016.395.03.736.078 1.009.146.171.043.296.088.385.129 1.166 2.508 1.059 5.307.6 8.155zm-8.22-8.79L9.92 8.38h.005l.016-.003.059-.009.22-.031A43.856 43.856 0 0 1 13.522 8c.946-.059 1.963-.083 2.851-.015a7.76 7.76 0 0 1 1.255.186c.372.092.753.232 1.058.462a.75.75 0 0 1 .22.266c1.657 3.354 1.25 7.065.63 10.383a.75.75 0 0 1-1.138.496l-1.757-1.112-1.642 3.854a.75.75 0 0 1-1.373.015l-1.217-2.686-7.21 1.825a.75.75 0 0 1-.761-1.207l3.916-4.71-1.757-1.766a.75.75 0 0 1 .265-1.23l3.774-1.436-1.22-1.78A.75.75 0 0 1 9.92 8.38l.114.742z" fill="#000"/><path fill-rule="evenodd" clip-rule="evenodd" d="M16.638 11.328a.75.75 0 0 0-1.04.207c-1.167 1.747-1.812 2.587-2.317 3.073-.452.436-.79.59-1.457.895l-.065.03a.75.75 0 1 0 .623 1.364l.106-.048c.65-.296 1.195-.544 1.834-1.16.637-.614 1.363-1.584 2.523-3.32a.75.75 0 0 0-.207-1.04zm3.265-5.111a1.606 1.606 0 0 1-.542.786.75.75 0 1 0 .94 1.169 3.103 3.103 0 0 0 1.028-1.49c.211-.65.258-1.433.126-2.39a.75.75 0 1 0-1.486.205c.111.808.054 1.35-.066 1.72z" fill="#000"/></svg>
