<svg width="19" height="19" viewBox="0 0 19 19" fill="none" xmlns="http://www.w3.org/2000/svg"><path fill-rule="evenodd" clip-rule="evenodd" d="M.238 8.183h12.858l-.861 1.187a3.374 3.374 0 0 0-.268.528c-.149.369-.3.91-.3 1.581 0 .591.266 1.211.637 2.074l.01.023c.349.811.77 1.808.77 2.924 0 .691-.275 1.24-.749 1.616-.435.346-.983.503-1.479.581-.725.114-1.591.087-2.231.066-.21-.007-.394-.013-.542-.013H5.25c-.148 0-.332.006-.541.013-.64.02-1.507.048-2.232-.066-.496-.078-1.044-.235-1.479-.58C.525 17.74.25 17.19.25 16.5c0-1.116.42-2.113.77-2.924l.01-.023c.37-.863.637-1.483.637-2.074 0-.67-.152-1.212-.3-1.581a3.385 3.385 0 0 0-.268-.528L.238 8.183zm2.646 1.5c.155.476.283 1.084.283 1.796 0 .91-.383 1.795-.704 2.538l-.066.151c-.36.837-.647 1.566-.647 2.332 0 .252.08.361.182.442.14.112.39.212.778.274.573.09 1.198.07 1.803.05.25-.008.498-.016.737-.016h2.833c.24 0 .486.008.737.016.606.02 1.23.04 1.803-.05.39-.062.639-.162.779-.274.102-.08.181-.19.181-.442 0-.766-.287-1.495-.647-2.332l-.065-.151c-.322-.743-.704-1.628-.704-2.538 0-.712.127-1.32.282-1.796H2.884zM10.905 2.777c.016-.019.035-.04.057-.062.151-.158.376-.327.636-.489a7.817 7.817 0 0 1 1.006-.526l.015-.007h.003L12.333 1l-.288-.692h-.002l-.002.001-.007.003-.023.01a9.395 9.395 0 0 0-1.209.632 4.884 4.884 0 0 0-.922.722c-.256.266-.563.683-.563 1.213 0 .635.424.986.757 1.16.24.124.547.216.772.284l.13.04c.283.088.443.158.535.23.046.038.072.063.072.175 0 .257-.208.539-.73.81a4.09 4.09 0 0 1-.928.342l-.012.003.154.734.153.734h.002l.003-.001.008-.002.027-.006a5.616 5.616 0 0 0 .385-.105c.24-.075.567-.194.901-.368.612-.319 1.537-.981 1.537-2.141 0-.597-.257-1.044-.636-1.346-.333-.266-.74-.403-1.023-.492a27.5 27.5 0 0 0-.223-.068c-.123-.037-.218-.066-.296-.095zM6.372 2.777c.016-.019.035-.04.057-.062.15-.158.376-.327.635-.489A7.817 7.817 0 0 1 8.071 1.7l.015-.007h.003L7.8 1 7.511.308 7.507.31l-.007.003-.023.01a6.67 6.67 0 0 0-.36.166 9.31 9.31 0 0 0-.849.466 4.883 4.883 0 0 0-.923.722c-.255.266-.563.683-.563 1.213 0 .635.425.986.758 1.16.24.124.547.216.772.284l.13.04c.283.088.443.158.535.23.046.038.072.063.072.175 0 .257-.208.539-.73.81a4.094 4.094 0 0 1-.929.342l-.011.003.153.734.154.734h.001l.003-.001.009-.002.026-.006.089-.021a5.59 5.59 0 0 0 1.198-.452C7.625 6.6 8.55 5.938 8.55 4.778c0-.597-.257-1.044-.636-1.346-.333-.266-.74-.403-1.024-.492l-.222-.068a6.105 6.105 0 0 1-.296-.095zM1.839 2.777c.015-.019.034-.04.056-.062.152-.158.376-.327.636-.489A7.82 7.82 0 0 1 3.538 1.7l.015-.007h.002L3.267 1l-.29-.692-.002.001-.007.003-.023.01a6.658 6.658 0 0 0-.36.166c-.228.11-.536.27-.85.466a4.883 4.883 0 0 0-.922.722C.557 1.942.25 2.359.25 2.889c0 .635.424.986.758 1.16.24.124.547.216.771.284.048.014.092.027.13.04.284.088.444.158.535.23.047.038.073.063.073.175 0 .257-.208.539-.73.81a4.094 4.094 0 0 1-.93.342l-.01.003.153.734.153.734h.002l.003-.001.009-.002.026-.006.088-.021a5.59 5.59 0 0 0 1.198-.452c.612-.319 1.538-.981 1.538-2.141 0-.597-.258-1.044-.636-1.346-.334-.266-.74-.403-1.024-.492l-.222-.068c-.124-.037-.218-.066-.296-.095z" fill="currentColor"/><path fill-rule="evenodd" clip-rule="evenodd" d="M13.65 12.494l-.183-.727-.184-.727.002-.001.005-.001.014-.004a3.165 3.165 0 0 1 .21-.046c.139-.027.333-.062.566-.091a7.16 7.16 0 0 1 1.745-.022c.644.08 1.379.289 1.961.8.61.534.964 1.32.964 2.358 0 .982-.246 1.752-.683 2.33-.435.574-1.006.89-1.54 1.06-.528.168-1.04.2-1.409.193a4.843 4.843 0 0 1-.633-.053l-.013-.003h-.007s-.001-.001.135-.739l.135-.737h-.001l.016.002.08.01c.073.009.182.018.314.02.27.005.607-.02.929-.123.317-.1.595-.267.798-.536.2-.265.379-.698.379-1.424 0-.67-.213-1.02-.453-1.23-.267-.235-.666-.38-1.155-.44-.482-.059-.981-.028-1.372.021a6.709 6.709 0 0 0-.585.102l-.03.006-.005.002zm0 0z" fill="#000"/></svg>
