<svg width="17" height="20" viewBox="0 0 17 20" fill="none" xmlns="http://www.w3.org/2000/svg"><path fill-rule="evenodd" clip-rule="evenodd" d="M5.58 6.673a.5.5 0 0 1-.355.258l-2.053.36a.5.5 0 0 0-.273.84l1.45 1.5a.5.5 0 0 1 .135.417l-.291 2.065a.5.5 0 0 0 .714.519l1.874-.915a.5.5 0 0 1 .438 0l1.874.915a.5.5 0 0 0 .714-.52l-.29-2.064a.5.5 0 0 1 .135-.417l1.449-1.5a.5.5 0 0 0-.273-.84l-2.053-.36a.5.5 0 0 1-.355-.258L7.442 4.83a.5.5 0 0 0-.884 0L5.58 6.673zM7 7.198l-.095.178a2 2 0 0 1-1.42 1.032l-.199.035.14.146a2 2 0 0 1 .543 1.669l-.028.2.181-.089a2 2 0 0 1 1.756 0l.181.089-.028-.2a2 2 0 0 1 .542-1.67l.141-.145-.2-.035a2 2 0 0 1-1.42-1.032L7 7.198z" fill="#000"/><path fill-rule="evenodd" clip-rule="evenodd" d="M.25 1A.75.75 0 0 1 1 .25h12a.75.75 0 0 1 .75.75v15a.75.75 0 0 1-.75.75H1A.75.75 0 0 1 .25 16V1zm1.5.75v13.5h10.5V1.75H1.75z" fill="#000"/><path fill-rule="evenodd" clip-rule="evenodd" d="M16 2.25a.75.75 0 0 1 .75.75v16a.75.75 0 0 1-.75.75H3a.75.75 0 0 1 0-1.5h12.25V3a.75.75 0 0 1 .75-.75z" fill="#000"/></svg>
