<svg width="20" height="20" viewBox="0 0 20 20" fill="none" xmlns="http://www.w3.org/2000/svg"><path fill-rule="evenodd" clip-rule="evenodd" d="M3.08 4.277A5.088 5.088 0 0 1 9.507 1.04l6.18 2.04a5.089 5.089 0 0 1 3.237 6.427l-2.04 6.18a5.089 5.089 0 0 1-6.428 3.237l-6.18-2.04a5.088 5.088 0 0 1-3.236-6.428l2.04-6.18zm5.957-1.813a3.588 3.588 0 0 0-4.533 2.283l-2.04 6.18a3.589 3.589 0 0 0 2.283 4.532l6.18 2.04a3.589 3.589 0 0 0 4.532-2.283l2.04-6.18a3.589 3.589 0 0 0-2.282-4.532l-6.18-2.04z" fill="currentColor"/></svg>
