<svg width="16" height="20" viewBox="0 0 16 20" fill="none" xmlns="http://www.w3.org/2000/svg"><path fill-rule="evenodd" clip-rule="evenodd" d="M2.375 19a.75.75 0 0 1 .75-.75h6.75a.75.75 0 0 1 0 1.5h-6.75a.75.75 0 0 1-.75-.75zM.533.25h11.934l-.859 1.189-.002.002-.01.014a5.731 5.731 0 0 0-.197.298c-.131.207-.306.5-.48.842-.362.71-.669 1.53-.669 2.213 0 .722.203 1.458.451 2.361l.022.08c.25.904.527 1.945.527 3.097 0 1.265-.6 2.464-1.29 3.325-.35.437-.746.814-1.142 1.089-.375.259-.841.49-1.318.49h-2c-.477 0-.943-.231-1.318-.49a5.581 5.581 0 0 1-1.142-1.09c-.69-.86-1.29-2.06-1.29-3.325 0-1.152.278-2.193.527-3.098l.022-.079c.248-.903.451-1.64.451-2.361 0-.682-.307-1.503-.668-2.213a10.5 10.5 0 0 0-.679-1.14l-.01-.014-.001-.002m1.94.311c.03.053.058.108.086.164.389.762.832 1.845.832 2.894 0 .93-.253 1.848-.485 2.686l-.042.152c-.25.913-.473 1.775-.473 2.7 0 .812.4 1.69.96 2.386.275.343.567.615.826.794.13.09.241.15.33.185a.68.68 0 0 0 .1.034.194.194 0 0 0 .034.005h2s.01 0 .033-.005a.68.68 0 0 0 .102-.034c.088-.035.2-.095.329-.185.26-.18.551-.451.826-.793.56-.697.96-1.575.96-2.387 0-.925-.222-1.787-.473-2.7l-.042-.152c-.231-.838-.485-1.755-.485-2.686 0-1.049.443-2.132.832-2.894l.085-.164H3.333z" fill="#000"/><path fill-rule="evenodd" clip-rule="evenodd" d="M11.724 7.411l-.162-.732c-.162-.732-.161-.732-.16-.733h.002l.005-.001.015-.003a2.211 2.211 0 0 1 .183-.03c.116-.016.276-.032.468-.036a3.86 3.86 0 0 1 1.442.237 3.07 3.07 0 0 1 1.528 1.252c.41.651.643 1.516.643 2.635 0 1.119-.233 1.984-.643 2.635a3.07 3.07 0 0 1-1.528 1.252 3.86 3.86 0 0 1-1.442.237 4.128 4.128 0 0 1-.651-.066l-.014-.003h-.006l-.002-.001c-.001 0-.002 0 .16-.733l.162-.732h-.002l-.001-.001.013.003.074.011c.069.01.172.02.297.022.256.006.575-.023.878-.139.292-.111.575-.304.793-.65.222-.352.412-.92.412-1.835 0-.915-.19-1.483-.412-1.835a1.57 1.57 0 0 0-.793-.65 2.364 2.364 0 0 0-.878-.14 2.646 2.646 0 0 0-.37.035l-.014.002h.002zm-.003.001h-.001zm0 5.176z" fill="#000"/><path d="M7.625 16.75a1.125 1.125 0 1 1-2.25 0 1.125 1.125 0 0 1 2.25 0z" fill="#000"/></svg>
