<svg width="15" height="24" viewBox="0 0 15 24" fill="none" xmlns="http://www.w3.org/2000/svg"><path fill-rule="evenodd" clip-rule="evenodd" d="M5.487 1.856a9.85 9.85 0 0 1-.107.552c-.07.311-.16.68-.25 1.027a73.41 73.41 0 0 1-.33 1.228l-.022.082-.009.03a.751.751 0 0 1-.408.479 3.99 3.99 0 0 1-.488.179l-.025.008a2.209 2.209 0 0 0-.309.112.332.332 0 0 0-.116.084.571.571 0 0 0-.101.224 88.6 88.6 0 0 0-.433 1.65l-.002.007c-.076.298-.307.678-.722.938.079.245.132.546.116.878-.02.408-.01 2.422 0 3.465.356 1.947 1.125 5.927 1.497 7.112.316 1.005.486 1.637.56 1.959.072.031.201.074.415.104.49.069 1.072.147 1.59.203.544.058.94.083 1.103.07a.759.759 0 0 1 .12 0c.163.013.556-.012 1.096-.07a51.64 51.64 0 0 0 1.583-.203 1.64 1.64 0 0 0 .415-.104c.074-.322.245-.954.56-1.959.372-1.186 1.141-5.165 1.497-7.112.01-1.043.02-3.057 0-3.465a2.482 2.482 0 0 1 .116-.878c-.415-.26-.646-.64-.722-.938l-.002-.007a88.109 88.109 0 0 0-.433-1.65c-.037-.137-.166-.278-.42-.401a1.928 1.928 0 0 0-.432-.148h.003a.75.75 0 0 1-.598-.537l-.009-.03-.023-.082a67.737 67.737 0 0 1-.328-1.228 33.36 33.36 0 0 1-.25-1.027 9.85 9.85 0 0 1-.107-.552 2.43 2.43 0 0 0-.694-.106H6.181a2.43 2.43 0 0 0-.694.106zM6.18.25c-.31 0-.746.047-1.13.17a1.89 1.89 0 0 0-.613.316 1.104 1.104 0 0 0-.43.861c-.002.014-.006.052-.018.123a8.427 8.427 0 0 1-.074.362c-.064.288-.15.637-.239.979-.088.34-.175.668-.242.911l-.007.029-.028.009-.006.002a3.55 3.55 0 0 0-.518.196c-.446.22-.822.598-1.001 1.261a93.86 93.86 0 0 0-.433 1.65.203.203 0 0 1-.027.03.408.408 0 0 1-.225.099c-.16.027-.404.08-.604.232a.829.829 0 0 0-.232 1.067c.12.22.313.343.387.389l.004.002c.026.089.045.2.039.323-.024.473-.01 2.627-.001 3.616a.75.75 0 0 0 .012.128c.342 1.876 1.142 6.045 1.553 7.355.376 1.198.52 1.788.548 1.93.047.36.297.627.536.788.276.186.645.315 1.113.381.494.07 1.095.15 1.638.21.484.051.992.094 1.324.077.332.017.836-.026 1.318-.078a54.1 54.1 0 0 0 1.63-.209c.468-.066.837-.195 1.113-.381.239-.161.489-.428.536-.788.028-.142.172-.732.548-1.93.411-1.31 1.211-5.479 1.553-7.355a.74.74 0 0 0 .012-.128c.01-.99.023-3.143 0-3.616a.981.981 0 0 1 .038-.323l.003-.002c.075-.046.268-.169.388-.389a.828.828 0 0 0-.232-1.067c-.2-.153-.444-.205-.604-.232a.408.408 0 0 1-.225-.098.2.2 0 0 1-.027-.031 94.34 94.34 0 0 0-.433-1.65c-.204-.752-.799-1.157-1.21-1.358a3.33 3.33 0 0 0-.353-.146 72.674 72.674 0 0 1-.24-.904 32.123 32.123 0 0 1-.238-.979 8.286 8.286 0 0 1-.073-.362 2.093 2.093 0 0 1-.019-.123v-.001c0-.408-.225-.694-.43-.86A1.899 1.899 0 0 0 9.95.42 3.916 3.916 0 0 0 8.82.25H6.181zm7.371 6.859l.001.001zm-2.727-1.797h-.002.002z" fill="#000"/><path fill-rule="evenodd" clip-rule="evenodd" d="M4.522 7.515c.57.113 1.519.235 2.978.235 1.459 0 2.409-.122 2.978-.235a5.03 5.03 0 0 0 .582-.148l.106-.039.012-.005-.004.001-.004.002-.002.002h-.002c-.001.001-.001.001.334.672l.335.671h-.001l-.002.001-.004.002-.008.004-.022.01a3.137 3.137 0 0 1-.264.101 6.383 6.383 0 0 1-.762.196c-.68.137-1.731.265-3.272.265-1.541 0-2.591-.128-3.272-.265a6.384 6.384 0 0 1-.762-.195 3.158 3.158 0 0 1-.264-.102l-.022-.01-.008-.004-.004-.002h-.002C3.164 8.67 3.164 8.67 3.5 8l.335-.671h-.001l-.002-.001-.002-.002-.004-.002-.004-.001.012.005.106.039c.11.036.298.09.582.148z" fill="#000"/></svg>
