<svg width="16" height="16" viewBox="0 0 16 16" fill="none" xmlns="http://www.w3.org/2000/svg"><path fill-rule="evenodd" clip-rule="evenodd" d="M15.53 9.843a.75.75 0 0 1-1.06 0L13.157 8.53a.75.75 0 0 1 1.06-1.06l1.313 1.312a.75.75 0 0 1 0 1.06z" fill="#000"/><path fill-rule="evenodd" clip-rule="evenodd" d="M13.157 8.53a.75.75 0 0 0 1.06 0l1.313-1.312a.75.75 0 0 0-1.06-1.06L13.157 7.47a.75.75 0 0 0 0 1.06z" fill="#000"/><path fill-rule="evenodd" clip-rule="evenodd" d="M11.25 8a.75.75 0 0 1 .75-.75h2a.75.75 0 0 1 0 1.5h-2a.75.75 0 0 1-.75-.75zM.47 9.843a.75.75 0 0 0 1.06 0L2.843 8.53a.75.75 0 0 0-1.06-1.06L.47 8.782a.75.75 0 0 0 0 1.06z" fill="#000"/><path fill-rule="evenodd" clip-rule="evenodd" d="M2.843 8.53a.75.75 0 0 1-1.06 0L.47 7.218a.75.75 0 0 1 1.06-1.06L2.843 7.47a.75.75 0 0 1 0 1.06z" fill="#000"/><path fill-rule="evenodd" clip-rule="evenodd" d="M4.75 8A.75.75 0 0 0 4 7.25H2.312a.75.75 0 0 0 0 1.5H4A.75.75 0 0 0 4.75 8zm1.407 7.53a.75.75 0 0 1 0-1.06l1.313-1.313a.75.75 0 0 1 1.06 1.06L7.218 15.53a.75.75 0 0 1-1.06 0z" fill="#000"/><path fill-rule="evenodd" clip-rule="evenodd" d="M7.47 13.157a.75.75 0 0 0 0 1.06l1.312 1.313a.75.75 0 0 0 1.06-1.06L8.53 13.157a.75.75 0 0 0-1.06 0z" fill="#000"/><path fill-rule="evenodd" clip-rule="evenodd" d="M8 11.25a.75.75 0 0 1 .75.75v1.688a.75.75 0 0 1-1.5 0V12a.75.75 0 0 1 .75-.75zM6.157.47a.75.75 0 0 0 0 1.06L7.47 2.843a.75.75 0 0 0 1.06-1.06L7.218.47a.75.75 0 0 0-1.06 0z" fill="#000"/><path fill-rule="evenodd" clip-rule="evenodd" d="M7.47 2.843a.75.75 0 0 1 0-1.06L8.782.47a.75.75 0 0 1 1.06 1.06L8.53 2.843a.75.75 0 0 1-1.06 0z" fill="#000"/><path fill-rule="evenodd" clip-rule="evenodd" d="M7.25 2.313V4a.75.75 0 0 0 1.5 0V2.312a.75.75 0 0 0-1.5 0zm4.772 12.315a.75.75 0 0 1-.75-.75v-1.856a.75.75 0 0 1 1.5 0v1.856a.75.75 0 0 1-.75.75z" fill="#000"/><path fill-rule="evenodd" clip-rule="evenodd" d="M11.272 12.022c0 .414.335.75.75.75h1.856a.75.75 0 0 0 0-1.5h-1.856a.75.75 0 0 0-.75.75z" fill="#000"/><path fill-rule="evenodd" clip-rule="evenodd" d="M10.47 10.47a.75.75 0 0 1 1.06 0l1.022 1.021a.75.75 0 0 1-1.06 1.061L10.47 11.53a.75.75 0 0 1 0-1.06zM1.372 3.978c0 .415.336.75.75.75h1.856a.75.75 0 1 0 0-1.5H2.122a.75.75 0 0 0-.75.75z" fill="#000"/><path fill-rule="evenodd" clip-rule="evenodd" d="M3.978 4.728a.75.75 0 0 1-.75-.75V2.122a.75.75 0 0 1 1.5 0v1.856a.75.75 0 0 1-.75.75z" fill="#000"/><path fill-rule="evenodd" clip-rule="evenodd" d="M5.53 5.53a.75.75 0 0 0 0-1.06L4.51 3.448a.75.75 0 0 0-1.061 1.06L4.47 5.53a.75.75 0 0 0 1.06 0zm-4.158 6.492a.75.75 0 0 1 .75-.75h1.856a.75.75 0 0 1 0 1.5H2.122a.75.75 0 0 1-.75-.75z" fill="#000"/><path fill-rule="evenodd" clip-rule="evenodd" d="M3.978 11.272a.75.75 0 0 0-.75.75v1.856a.75.75 0 0 0 1.5 0v-1.856a.75.75 0 0 0-.75-.75z" fill="#000"/><path fill-rule="evenodd" clip-rule="evenodd" d="M5.53 10.47a.75.75 0 0 1 0 1.06l-1.02 1.022a.75.75 0 1 1-1.061-1.06L4.47 10.47a.75.75 0 0 1 1.06 0zm6.492-9.098a.75.75 0 0 0-.75.75v1.856a.75.75 0 0 0 1.5 0V2.122a.75.75 0 0 0-.75-.75z" fill="#000"/><path fill-rule="evenodd" clip-rule="evenodd" d="M11.272 3.978a.75.75 0 0 1 .75-.75h1.856a.75.75 0 0 1 0 1.5h-1.856a.75.75 0 0 1-.75-.75z" fill="#000"/><path fill-rule="evenodd" clip-rule="evenodd" d="M10.47 5.53a.75.75 0 0 0 1.06 0l1.022-1.021a.75.75 0 1 0-1.06-1.061L10.47 4.47a.75.75 0 0 0 0 1.06zM8 9.5a1.5 1.5 0 1 0 0-3 1.5 1.5 0 0 0 0 3zM8 11a3 3 0 1 0 0-6 3 3 0 0 0 0 6z" fill="#000"/></svg>
