<svg width="21" height="17" viewBox="0 0 21 17" fill="none" xmlns="http://www.w3.org/2000/svg"><path fill-rule="evenodd" clip-rule="evenodd" d="M19.937 13.966a1.738 1.738 0 0 1-2.196 1.106l-1.408-.465a1.739 1.739 0 0 1-1.106-2.196l.465-1.408a1.739 1.739 0 0 1 2.196-1.106l1.408.465a1.739 1.739 0 0 1 1.106 2.196l-.465 1.408zm-1.725-.319a.239.239 0 0 0 .301-.151l.465-1.409a.239.239 0 0 0-.152-.3l-1.408-.466a.239.239 0 0 0-.301.152l-.465 1.408a.239.239 0 0 0 .151.302l1.409.464zm-4.667-1.352a1.739 1.739 0 0 1-.94 2.272l-1.37.568a1.739 1.739 0 0 1-2.271-.94l-.569-1.37a1.739 1.739 0 0 1 .94-2.272l1.37-.568a1.739 1.739 0 0 1 2.272.94l.568 1.37zm-1.514.886c.121-.05.18-.19.129-.312l-.569-1.37a.239.239 0 0 0-.311-.128l-1.37.568a.239.239 0 0 0-.129.312l.568 1.37c.05.121.19.179.312.128l1.37-.568zM5.93 14.545a1.739 1.739 0 0 1-2.375.636L2.27 14.44a1.739 1.739 0 0 1-.636-2.375l.741-1.285a1.739 1.739 0 0 1 2.375-.636l1.285.741a1.739 1.739 0 0 1 .636 2.375l-.741 1.285zm-1.625-.663c.114.066.26.027.326-.087l.741-1.285a.239.239 0 0 0-.087-.325L4 11.442a.239.239 0 0 0-.326.087l-.741 1.285a.239.239 0 0 0 .087.325l1.285.742zm5.608-7.085c.709.647.76 1.747.112 2.456l-1 1.096c-.646.71-1.746.76-2.455.113l-1.096-1a1.739 1.739 0 0 1-.112-2.456l.999-1.095a1.739 1.739 0 0 1 2.456-.113l1.096 1zm-.996 1.446a.239.239 0 0 0-.015-.338l-1.096-.999a.239.239 0 0 0-.337.016l-1 1.095a.239.239 0 0 0 .016.337l1.096 1a.239.239 0 0 0 .337-.016l1-1.095zm4.456-6.059c.71.647.76 1.747.112 2.456l-.999 1.096a1.738 1.738 0 0 1-2.456.112l-1.096-1a1.739 1.739 0 0 1-.112-2.455l.999-1.096a1.739 1.739 0 0 1 2.456-.113l1.096 1zm-.996 1.445a.239.239 0 0 0-.015-.337l-1.096-1a.239.239 0 0 0-.337.016l-1 1.096a.239.239 0 0 0 .016.337l1.096 1a.239.239 0 0 0 .337-.016l1-1.096zm1.601 1.873a1.739 1.739 0 0 1 2.36.691l.711 1.301a1.739 1.739 0 0 1-.69 2.36l-1.302.711a1.739 1.739 0 0 1-2.36-.69l-.711-1.302a1.739 1.739 0 0 1 .69-2.36l1.302-.71zm1.044 1.411a.239.239 0 0 0-.324-.095l-1.301.712a.239.239 0 0 0-.095.324l.712 1.3a.239.239 0 0 0 .323.095l1.301-.711a.239.239 0 0 0 .095-.324l-.711-1.301z" fill="#000"/></svg>
