<svg width="10" height="24" viewBox="0 0 10 24" fill="none" xmlns="http://www.w3.org/2000/svg"><path fill-rule="evenodd" clip-rule="evenodd" d="M8.5 2.436C9.372 2.21 10 2 10 2v20s-1.625 1.5-5 1.5S0 22 0 22V2s.628.21 1.5.436C2.535 2.706 3.915 3 5 3s2.465-.294 3.5-.564zm0 1.547C7.49 4.231 6.15 4.5 5 4.5s-2.49-.269-3.5-.517v17.225c.102.056.22.115.353.176.65.293 1.69.616 3.147.616 1.458 0 2.498-.323 3.147-.616.133-.06.251-.12.353-.176V3.983z" fill="#000"/><path fill-rule="evenodd" clip-rule="evenodd" d="M.45 2.6l-.443.605v-1.21L.45 2.6zm9.1 0l.443.605v-1.21L9.55 2.6zm-7.021 0c.625.14 1.443.25 2.471.25s1.846-.11 2.471-.25C6.846 2.46 6.028 2.35 5 2.35s-1.846.11-2.471.25zM1.29 1.39C2.11 1.113 3.327.85 5 .85s2.891.263 3.71.54c.408.138.715.279.927.39a3.804 3.804 0 0 1 .319.188l.023.016.008.006.003.003.002.001s.001.001-.442.606l.443.606h-.001l-.002.001-.003.003-.008.006-.023.016a3.8 3.8 0 0 1-.319.188 6.358 6.358 0 0 1-.927.39c-.819.277-2.037.54-3.71.54s-2.891-.263-3.71-.54a6.358 6.358 0 0 1-.927-.39 3.802 3.802 0 0 1-.319-.188l-.023-.016-.008-.006-.003-.003-.002-.001S.006 3.205.45 2.6l-.443-.606h.001l.002-.001.003-.003.008-.006.023-.016.072-.046c.06-.037.141-.086.247-.142.212-.111.519-.252.927-.39z" fill="#000"/><path d="M2.728 16.883a.93.93 0 0 1 1.174-.592l1.324.437a.93.93 0 0 1 .591 1.174l-.437 1.324a.93.93 0 0 1-1.174.591l-1.323-.437a.93.93 0 0 1-.592-1.174l.437-1.323zm1.732-2.059a.93.93 0 0 1-.09-1.311l.915-1.052a.93.93 0 0 1 1.311-.091l1.052.915a.93.93 0 0 1 .09 1.311l-.914 1.052a.93.93 0 0 1-1.311.09l-1.052-.914zM2.551 9.991a.93.93 0 0 1 .69-1.118l1.357-.322a.93.93 0 0 1 1.119.69l.321 1.357c.118.5-.19 1-.69 1.119l-1.357.32a.93.93 0 0 1-1.118-.69L2.55 9.992z" fill="#000"/></svg>
