<svg width="20" height="16" viewBox="0 0 20 16" fill="none" xmlns="http://www.w3.org/2000/svg"><path fill-rule="evenodd" clip-rule="evenodd" d="M15.38 3.588c.871-.623 1.478-1.34 1.822-2.088H1.838c.344.749.95 1.465 1.822 2.088C5.1 4.617 7.168 5.3 9.52 5.3c2.352 0 4.42-.683 5.86-1.712zM.232 1.5C1.19 4.534 4.984 6.8 9.52 6.8c4.536 0 8.331-2.266 9.288-5.3A4.98 4.98 0 0 0 19.04 0H0c0 .515.08 1.017.232 1.5zM9.52 7.77a.75.75 0 0 1 .75.75v4.08a.75.75 0 0 1-1.5 0V8.52a.75.75 0 0 1 .75-.75zM4.01 15a.75.75 0 0 1 .75-.75h9.52a.75.75 0 0 1 0 1.5H4.76a.75.75 0 0 1-.75-.75z" fill="#000"/></svg>
