<svg width="16" height="23" viewBox="0 0 16 23" fill="none" xmlns="http://www.w3.org/2000/svg"><path fill-rule="evenodd" clip-rule="evenodd" d="M12.925 10.841v-.155c-.003-.538-.006-1.559.115-2.577a8.825 8.825 0 0 1 .37-1.76l.043-.121c-2.421.14-4.85.192-6.24.192-1.668 0-4.123-.173-5.713-.3v14.517a.097.097 0 0 0 .01.014c.02.021.079.072.206.096 1.153.221 3.107.361 5.496.361 2.39 0 4.344-.14 5.496-.36.128-.025.187-.076.206-.097a.098.098 0 0 0 .01-.014V10.84zm0 9.802h1.5c0 .75-.57 1.412-1.434 1.578-1.292.247-3.358.387-5.779.387-2.42 0-4.486-.14-5.778-.387C.569 22.055 0 21.393 0 20.643V5.458c0-.52.534-.924 1.145-.873 1.54.129 4.293.335 6.067.335 1.581 0 4.536-.07 7.257-.26.01 0 .02 0 .029-.002a58.055 58.055 0 0 0 .957-.073c.335-.028.987.313.094 1.124l-.094.082a1.506 1.506 0 0 0-.283.322c-.757 1.117-.75 3.537-.748 4.567v9.963h-1.5zm0-.008l.001-.002zm-11.427-.002l.001.002z" fill="#000"/><path d="M7 4.46h2v2H7v-2zm2 0h2v2H9v-2z" fill="#E5E5E5"/><path d="M6.959 17.18c-.538 1.58-1.934 2.535-3.118 2.132-1.185-.403-1.71-2.01-1.173-3.59.537-1.58 1.933-2.534 3.118-2.131 1.185.403 1.71 2.01 1.173 3.59z" fill="#000"/><path fill-rule="evenodd" clip-rule="evenodd" d="M7.455 1.08a.75.75 0 0 1 .952-.468L12.194 1.9a.75.75 0 1 1-.483 1.42L7.924 2.032a.75.75 0 0 1-.469-.952z" fill="#000"/><path fill-rule="evenodd" clip-rule="evenodd" d="M10.767 2.213L6.208 15.248l-1.416-.496L9.351 1.718l1.416.495z" fill="#000"/><path d="M7.769 18.31a1 1 0 0 1 .536-1.308l1.845-.773a1 1 0 0 1 1.308.536l.773 1.844a1 1 0 0 1-.536 1.31l-1.844.772a1 1 0 0 1-1.31-.536L7.77 18.31z" fill="#000"/><path fill-rule="evenodd" clip-rule="evenodd" d="M11.711 9.763a.75.75 0 0 1-.474.948l-1.5.5a.75.75 0 1 1-.474-1.423l1.5-.5a.75.75 0 0 1 .948.475zm-9.423 0a.75.75 0 0 1 .95-.475l1.5.5a.75.75 0 0 1-.475 1.423l-1.5-.5a.75.75 0 0 1-.475-.948z" fill="#000"/></svg>
