<svg width="15" height="22" viewBox="0 0 15 22" fill="none" xmlns="http://www.w3.org/2000/svg"><path fill-rule="evenodd" clip-rule="evenodd" d="M5.487 1.486a8.523 8.523 0 0 1-.107.51c-.07.29-.16.63-.25.952a63.932 63.932 0 0 1-.33 1.136l-.022.077-.009.027a.713.713 0 0 1-.408.443c-.177.076-.358.128-.488.166l-.025.007c-.15.044-.237.071-.309.104a.332.332 0 0 0-.116.078.513.513 0 0 0-.101.207c-.24.82-.39 1.363-.433 1.528l-.002.005c-.076.277-.307.628-.722.87.079.226.132.504.116.812-.02.377-.01 2.242 0 3.207.356 1.801 1.125 5.485 1.497 6.582.316.93.486 1.515.56 1.813.072.029.201.068.415.096.49.064 1.072.136 1.59.188.544.054.94.077 1.103.065a.81.81 0 0 1 .12 0c.163.012.556-.01 1.096-.065a55.95 55.95 0 0 0 1.583-.188c.213-.028.343-.067.415-.096.074-.298.245-.883.56-1.813.372-1.097 1.141-4.78 1.497-6.582.01-.965.02-2.83 0-3.207a2.138 2.138 0 0 1 .116-.813c-.415-.24-.646-.592-.722-.869l-.002-.005a76.714 76.714 0 0 0-.433-1.528c-.037-.127-.166-.257-.42-.371a2.028 2.028 0 0 0-.432-.137h.003a.732.732 0 0 1-.598-.497l-.009-.027-.023-.077a59.137 59.137 0 0 1-.328-1.136c-.09-.322-.18-.663-.25-.95a8.523 8.523 0 0 1-.107-.512 2.613 2.613 0 0 0-.694-.098H6.181a2.613 2.613 0 0 0-.694.098zM6.18 0c-.31 0-.746.043-1.13.157a1.96 1.96 0 0 0-.613.293c-.205.153-.43.418-.43.795v.002c-.002.013-.006.048-.018.113a7.292 7.292 0 0 1-.074.336c-.064.266-.15.59-.239.906a62.637 62.637 0 0 1-.25.87L3.4 3.48l-.006.001c-.136.04-.329.096-.518.182A1.76 1.76 0 0 0 1.875 4.83c-.228.782-.378 1.32-.433 1.527a.192.192 0 0 1-.027.029.423.423 0 0 1-.225.09c-.16.025-.404.074-.604.216a.781.781 0 0 0-.316.45.718.718 0 0 0 .084.537 1.046 1.046 0 0 0 .391.362.846.846 0 0 1 .039.299c-.024.437-.01 2.431-.001 3.347 0 .04.004.08.012.118.342 1.736 1.142 5.595 1.553 6.808.376 1.108.52 1.655.548 1.786.047.333.297.58.536.729.276.172.645.292 1.113.353.494.064 1.095.14 1.638.193.484.049.992.088 1.324.072.332.016.836-.023 1.318-.072a57.314 57.314 0 0 0 1.63-.193c.468-.061.837-.18 1.113-.353.239-.15.489-.396.536-.729.028-.131.172-.678.548-1.786.411-1.213 1.211-5.072 1.553-6.808a.635.635 0 0 0 .012-.118c.01-.916.023-2.91 0-3.347a.845.845 0 0 1 .038-.3l.003-.001c.075-.042.268-.156.388-.36a.718.718 0 0 0 .084-.538.782.782 0 0 0-.316-.45c-.2-.14-.444-.19-.604-.214a.423.423 0 0 1-.225-.091.19.19 0 0 1-.027-.029 82.126 82.126 0 0 0-.433-1.527c-.204-.696-.799-1.07-1.21-1.256a3.486 3.486 0 0 0-.353-.136 63.261 63.261 0 0 1-.24-.836c-.087-.317-.174-.64-.238-.906a7.17 7.17 0 0 1-.073-.336 1.8 1.8 0 0 1-.019-.113v-.002c0-.377-.225-.642-.43-.795A1.96 1.96 0 0 0 9.95.157 4.208 4.208 0 0 0 8.819 0H6.181zm7.371 6.348l.001.001zm-2.727-1.663h-.002.002z" fill="currentColor"/><path fill-rule="evenodd" clip-rule="evenodd" d="M4.522 6.724c.57.105 1.519.217 2.978.217 1.459 0 2.409-.112 2.978-.217a5.23 5.23 0 0 0 .582-.137c.054-.017.089-.03.106-.036l.012-.005-.004.002-.004.001-.002.002h-.002c-.001 0-.001.001.334.622l.335.621h-.001l-.002.001-.004.002-.008.004-.022.009a3.298 3.298 0 0 1-.264.094 6.802 6.802 0 0 1-.762.18c-.68.127-1.731.246-3.272.246-1.541 0-2.591-.119-3.272-.245a6.803 6.803 0 0 1-.762-.181 3.32 3.32 0 0 1-.264-.094L3.18 7.8l-.008-.003-.004-.002h-.002c-.001-.001-.001-.001.334-.622l.335-.621h-.001l-.002-.001-.002-.002-.004-.001-.004-.002.012.005c.017.006.052.019.106.036.11.033.298.084.582.137z" fill="currentColor"/></svg>
