<svg width="17" height="20" viewBox="0 0 17 20" fill="none" xmlns="http://www.w3.org/2000/svg"><path fill-rule="evenodd" clip-rule="evenodd" d="M.25 1A.75.75 0 0 1 1 .25h12a.75.75 0 0 1 .75.75v15a.75.75 0 0 1-.75.75H1A.75.75 0 0 1 .25 16V1zm1.5.75v13.5h10.5V1.75H1.75z" fill="#000"/><path fill-rule="evenodd" clip-rule="evenodd" d="M16 2.25a.75.75 0 0 1 .75.75v16a.75.75 0 0 1-.75.75H3a.75.75 0 0 1 0-1.5h12.25V3a.75.75 0 0 1 .75-.75z" fill="#000"/><path d="M5.623 5c1.763 0 3.394.98 4.297.98.419 0 .463-.418.771-.418.199 0 .309.125.309.25 0 .334-.551.855-1.653.855-.375 0-.727-.042-1.102-.084v4.396c0 .521.154.584.772.646V12h-3.24v-.375c.617-.042.771-.125.771-.646V6.271c-.639-.125-1.19-.25-1.653-.25-.705 0-1.234.333-1.234.958 0 .313.154.583.44.583.354 0 .42-.541 1.037-.541.44 0 .771.333.771.729 0 .542-.463.917-1.19.917C3.815 8.687 3 8.104 3 6.979 3 5.771 4.234 5 5.623 5z" fill="#010101"/></svg>
