<svg width="22" height="22" viewBox="0 0 22 22" fill="none" xmlns="http://www.w3.org/2000/svg"><path fill-rule="evenodd" clip-rule="evenodd" d="M3.133 12.044a4.545 4.545 0 0 1 1.796-6.171l4.99-2.74a4.545 4.545 0 0 1 6.172 1.796l2.74 4.99a4.545 4.545 0 0 1-1.797 6.171l-4.99 2.74a4.545 4.545 0 0 1-6.171-1.796l-2.74-4.99zM5.65 7.188a3.045 3.045 0 0 0-1.203 4.135l2.74 4.99a3.045 3.045 0 0 0 4.135 1.203l4.99-2.74a3.045 3.045 0 0 0 1.203-4.135l-2.74-4.99a3.045 3.045 0 0 0-4.135-1.204l-4.99 2.74z" fill="currentColor"/><path fill-rule="evenodd" clip-rule="evenodd" d="M8.275 10.364l2-7.556 1.45.384-1.75 6.614H13a.75.75 0 0 1 .73.922l-2 8.445-1.46-.346 1.782-7.522H9a.75.75 0 0 1-.725-.941z" fill="currentColor"/></svg>
