<svg shape-rendering="geometricPrecision" width="15" height="18" viewBox="0 0 15 18" fill="none" xmlns="http://www.w3.org/2000/svg"><path d="M3.938 10.249a1.196 1.196 0 0 1 1.51-.761l1.705.562c.627.207.968.884.76 1.511l-.562 1.704a1.196 1.196 0 0 1-1.51.761l-1.705-.562a1.196 1.196 0 0 1-.761-1.511l.563-1.704zm7.022.996a1.222 1.222 0 0 1-1.717-.183L8.092 9.636a1.222 1.222 0 0 1 .183-1.717L9.7 6.767a1.222 1.222 0 0 1 1.718.184l1.15 1.425a1.222 1.222 0 0 1-.182 1.718l-1.426 1.151z" fill="currentColor"/><path fill-rule="evenodd" clip-rule="evenodd" d="M1 14.774l-.426.617-.324-.224V3h1.5v11.35l.062.035c.271.148.679.349 1.207.552 1.056.405 2.59.813 4.481.813s3.425-.408 4.481-.813a10.077 10.077 0 0 0 1.269-.586V3h1.5v12.167l-.324.224-.426-.617.426.617-.002.001-.003.003-.01.006-.029.02a7.854 7.854 0 0 1-.476.282c-.323.175-.79.405-1.387.634-1.194.458-2.91.913-5.019.913s-3.825-.455-5.019-.913a11.565 11.565 0 0 1-1.387-.635 7.772 7.772 0 0 1-.476-.282l-.03-.02-.009-.005-.003-.003H.575s-.001-.001.425-.618z" fill="currentColor"/><path fill-rule="evenodd" clip-rule="evenodd" d="M.7 3l-.392.64V2.36L.7 3zm13.5 0l.457.594V2.406L14.2 3zM2.612 3l.109-.035C3.835 2.61 5.509 2.25 7.7 2.25c2.19 0 3.73.36 4.705.707l.12.043a8.549 8.549 0 0 1-.12.043c-.974.346-2.514.707-4.705.707-2.191 0-3.865-.361-4.98-.715A12.53 12.53 0 0 1 2.613 3zm-.345-1.465C3.515 1.14 5.34.75 7.7.75s4.07.39 5.207.793c.569.202.992.407 1.28.567a5.061 5.061 0 0 1 .454.283l.01.007.003.003.002.001v.001L14.2 3l.457.595h-.001l-.002.002-.003.003-.01.007a1.776 1.776 0 0 1-.12.084c-.079.051-.19.12-.333.2-.29.16-.713.364-1.28.566-1.139.404-2.849.793-5.208.793s-4.185-.389-5.433-.785a11.886 11.886 0 0 1-1.43-.551 7.324 7.324 0 0 1-.483-.247l-.03-.018-.01-.006-.003-.002H.31L.309 3.64.7 3l-.391-.64.002-.001.003-.002.01-.006.03-.018.104-.057a7.11 7.11 0 0 1 .378-.19c.328-.153.807-.353 1.43-.55z" fill="currentColor"/></svg>
