<svg width="20" height="18" viewBox="0 0 20 18" fill="none" xmlns="http://www.w3.org/2000/svg"><path fill-rule="evenodd" clip-rule="evenodd" d="M2.4 11.08L1.254 7.316A3.937 3.937 0 0 1 3.87 2.4l3.766-1.148A3.937 3.937 0 0 1 12.55 3.87l1.148 3.766a3.937 3.937 0 0 1-2.618 4.914l-3.765 1.148A3.937 3.937 0 0 1 2.4 11.08zm1.256-.382a2.625 2.625 0 0 0 3.276 1.745l3.766-1.149a2.624 2.624 0 0 0 1.745-3.275l-1.149-3.766a2.624 2.624 0 0 0-3.276-1.745L4.253 3.656a2.625 2.625 0 0 0-1.745 3.276l1.148 3.766z" fill="currentColor"/><path fill-rule="evenodd" clip-rule="evenodd" d="M7.645 13.378l-.134-3.934a3.937 3.937 0 0 1 3.8-4.07l3.934-.134a3.937 3.937 0 0 1 4.07 3.8l.134 3.935a3.937 3.937 0 0 1-3.8 4.069l-3.935.134a3.937 3.937 0 0 1-4.069-3.8zm1.312-.045a2.625 2.625 0 0 0 2.713 2.534l3.934-.135a2.625 2.625 0 0 0 2.534-2.712l-.135-3.935a2.625 2.625 0 0 0-2.713-2.533l-3.934.134A2.625 2.625 0 0 0 8.822 9.4l.135 3.934z" fill="currentColor"/></svg>
